<?xml version="1.0" encoding="UTF-8" standalone="no"?>
<svg
   xmlns:dc="http://purl.org/dc/elements/1.1/"
   xmlns:cc="http://creativecommons.org/ns#"
   xmlns:rdf="http://www.w3.org/1999/02/22-rdf-syntax-ns#"
   xmlns:svg="http://www.w3.org/2000/svg"
   xmlns="http://www.w3.org/2000/svg"
   xmlns:sodipodi="http://sodipodi.sourceforge.net/DTD/sodipodi-0.dtd"
   xmlns:inkscape="http://www.inkscape.org/namespaces/inkscape"
   version="1.1"
   width="256"
   height="256"
   viewBox="0 0 256 256"
   xml:space="preserve"
   id="svg32"
   sodipodi:docname="metaverse-12416.svg"
   inkscape:version="1.0.1 (3bc2e813f5, 2020-09-07)"
   inkscape:export-filename="C:\Users\adam\Downloads\metaverse-12416.png"
   inkscape:export-xdpi="97.475067"
   inkscape:export-ydpi="97.475067"><metadata
   id="metadata36"><rdf:RDF><cc:Work
       rdf:about=""><dc:format>image/svg+xml</dc:format><dc:type
         rdf:resource="http://purl.org/dc/dcmitype/StillImage" /></cc:Work></rdf:RDF></metadata><sodipodi:namedview
   pagecolor="#ffffff"
   bordercolor="#666666"
   borderopacity="1"
   objecttolerance="10"
   gridtolerance="10"
   guidetolerance="10"
   inkscape:pageopacity="0"
   inkscape:pageshadow="2"
   inkscape:window-width="1366"
   inkscape:window-height="715"
   id="namedview34"
   showgrid="false"
   inkscape:snap-global="true"
   inkscape:zoom="1.1467976"
   inkscape:cx="164.96531"
   inkscape:cy="113.23216"
   inkscape:window-x="-8"
   inkscape:window-y="-8"
   inkscape:window-maximized="1"
   inkscape:current-layer="svg32" />
<desc
   id="desc2">Created with Fabric.js 1.7.22</desc>
<defs
   id="defs4">
</defs>
<g
   transform="translate(128 128) scale(0.87 0.87)"
   style=""
   id="g30">
	<g
   style="stroke: none; stroke-width: 0; stroke-dasharray: none; stroke-linecap: butt; stroke-linejoin: miter; stroke-miterlimit: 10; fill: none; fill-rule: nonzero; opacity: 1;"
   transform="translate(-144.89999999999998 -144.90000000000003) scale(3.22 3.22)"
   id="g28">
	<path
   d="M 28.598 27.931 h -2.399 c -1.104 0 -2 -0.896 -2 -2 s 0.896 -2 2 -2 h 2.399 c 1.246 0 2.26 -1.014 2.26 -2.26 s -1.014 -2.26 -2.26 -2.26 h -4.26 c -1.104 0 -2 -0.896 -2 -2 s 0.896 -2 2 -2 h 4.26 c 3.452 0 6.26 2.808 6.26 6.26 S 32.049 27.931 28.598 27.931 z"
   style="stroke: none; stroke-width: 1; stroke-dasharray: none; stroke-linecap: butt; stroke-linejoin: miter; stroke-miterlimit: 10; fill: rgb(0,0,0); fill-rule: nonzero; opacity: 1;"
   transform=" matrix(1 0 0 1 0 0) "
   stroke-linecap="round"
   id="path6" />
	<path
   d="M 28.598 36.451 h -4.26 c -1.104 0 -2 -0.896 -2 -2 s 0.896 -2 2 -2 h 4.26 c 1.246 0 2.26 -1.014 2.26 -2.26 s -1.014 -2.26 -2.26 -2.26 h -2.399 c -1.104 0 -2 -0.896 -2 -2 s 0.896 -2 2 -2 h 2.399 c 3.452 0 6.26 2.808 6.26 6.26 C 34.857 33.643 32.049 36.451 28.598 36.451 z"
   style="stroke: none; stroke-width: 1; stroke-dasharray: none; stroke-linecap: butt; stroke-linejoin: miter; stroke-miterlimit: 10; fill: rgb(0,0,0); fill-rule: nonzero; opacity: 1;"
   transform=" matrix(1 0 0 1 0 0) "
   stroke-linecap="round"
   id="path8" />
	<path
   d="M 43.639 36.451 c -3.452 0 -6.26 -2.808 -6.26 -6.26 c 0 -3.452 2.808 -6.26 6.26 -6.26 c 3.452 0 6.259 2.808 6.259 6.26 C 49.898 33.643 47.091 36.451 43.639 36.451 z M 43.639 27.931 c -1.246 0 -2.26 1.014 -2.26 2.26 s 1.014 2.26 2.26 2.26 c 1.246 0 2.259 -1.014 2.259 -2.26 S 44.885 27.931 43.639 27.931 z"
   style="stroke: none; stroke-width: 1; stroke-dasharray: none; stroke-linecap: butt; stroke-linejoin: miter; stroke-miterlimit: 10; fill: rgb(0,0,0); fill-rule: nonzero; opacity: 1;"
   transform=" matrix(1 0 0 1 0 0) "
   stroke-linecap="round"
   id="path10" />
	<path
   d="M 39.89 30.166 c -0.256 0 -0.517 -0.05 -0.769 -0.154 c -1.02 -0.425 -1.501 -1.596 -1.077 -2.616 l 4.483 -10.753 c 0.425 -1.019 1.596 -1.5 2.616 -1.077 c 1.02 0.425 1.502 1.596 1.076 2.616 l -4.482 10.753 C 41.417 29.703 40.673 30.166 39.89 30.166 z"
   style="stroke: none; stroke-width: 1; stroke-dasharray: none; stroke-linecap: butt; stroke-linejoin: miter; stroke-miterlimit: 10; fill: rgb(0,0,0); fill-rule: nonzero; opacity: 1;"
   transform=" matrix(1 0 0 1 0 0) "
   stroke-linecap="round"
   id="path12" />
	<path
   d="M 58.642 36.451 c -3.451 0 -6.26 -2.808 -6.26 -6.26 v -8.52 c 0 -3.452 2.809 -6.26 6.26 -6.26 s 6.26 2.808 6.26 6.26 v 8.52 C 64.901 33.643 62.093 36.451 58.642 36.451 z M 58.642 19.412 c -1.246 0 -2.26 1.014 -2.26 2.26 v 8.52 c 0 1.246 1.014 2.26 2.26 2.26 s 2.26 -1.014 2.26 -2.26 v -8.52 C 60.901 20.425 59.888 19.412 58.642 19.412 z"
   style="stroke: none; stroke-width: 1; stroke-dasharray: none; stroke-linecap: butt; stroke-linejoin: miter; stroke-miterlimit: 10; fill: rgb(0,0,0); fill-rule: nonzero; opacity: 1;"
   transform=" matrix(1 0 0 1 0 0) "
   stroke-linecap="round"
   id="path14" />
	<path
   d="M 67.556 19.412 c -1.104 0 -2 -0.896 -2 -2 v -1.76 c 0 -1.104 0.896 -2 2 -2 s 2 0.896 2 2 v 1.76 C 69.556 18.516 68.66 19.412 67.556 19.412 z"
   style="stroke: none; stroke-width: 1; stroke-dasharray: none; stroke-linecap: butt; stroke-linejoin: miter; stroke-miterlimit: 10; fill: rgb(0,0,0); fill-rule: nonzero; opacity: 1;"
   transform=" matrix(1 0 0 1 0 0) "
   stroke-linecap="round"
   id="path16" />
	<path
   d="M 45 76.348 c -22.362 0 -45 -4.479 -45 -13.042 V 33.018 c 0 -1.104 0.896 -2 2 -2 s 2 0.896 2 2 v 30.288 c 0 3.155 14.082 9.042 41 9.042 c 26.919 0 41 -5.887 41 -9.042 V 33.018 c 0 -1.104 0.896 -2 2 -2 s 2 0.896 2 2 v 30.288 C 90 71.868 67.362 76.348 45 76.348 z"
   style="stroke: none; stroke-width: 1; stroke-dasharray: none; stroke-linecap: butt; stroke-linejoin: miter; stroke-miterlimit: 10; fill: rgb(0,0,0); fill-rule: nonzero; opacity: 1;"
   transform=" matrix(1 0 0 1 0 0) "
   stroke-linecap="round"
   id="path18" />
	<path
   d="M 45 46.061 c -22.362 0 -45 -4.48 -45 -13.042 c 0 -3.743 4.058 -6.832 12.062 -9.181 c 1.062 -0.309 2.172 0.296 2.482 1.355 c 0.311 1.06 -0.296 2.171 -1.355 2.482 C 5.935 29.804 4 32.035 4 33.018 c 0 3.156 14.082 9.042 41 9.042 c 26.919 0 41 -5.887 41 -9.042 c 0 -0.983 -1.936 -3.214 -9.188 -5.343 c -1.06 -0.311 -1.667 -1.422 -1.355 -2.482 c 0.312 -1.059 1.422 -1.665 2.482 -1.355 C 85.941 26.186 90 29.275 90 33.018 C 90 41.581 67.362 46.061 45 46.061 z"
   style="stroke: none; stroke-width: 1; stroke-dasharray: none; stroke-linecap: butt; stroke-linejoin: miter; stroke-miterlimit: 10; fill: rgb(0,0,0); fill-rule: nonzero; opacity: 1;"
   transform=" matrix(1 0 0 1 0 0) "
   stroke-linecap="round"
   id="path20" />
	<path
   d="M 67.836 74.662 c -0.528 0 -1.057 -0.209 -1.449 -0.622 L 50.541 57.368 l -10.85 8.583 c -0.802 0.635 -1.955 0.562 -2.671 -0.171 l -4.542 -4.646 L 17.465 73.075 c -0.866 0.689 -2.124 0.543 -2.811 -0.32 c -0.688 -0.864 -0.544 -2.123 0.32 -2.811 l 16.428 -13.065 c 0.803 -0.639 1.958 -0.567 2.675 0.168 l 4.544 4.65 l 10.869 -8.6 c 0.813 -0.643 1.979 -0.557 2.691 0.19 l 17.103 17.996 c 0.762 0.801 0.729 2.066 -0.071 2.828 C 68.827 74.479 68.331 74.662 67.836 74.662 z"
   style="stroke: none; stroke-width: 1; stroke-dasharray: none; stroke-linecap: butt; stroke-linejoin: miter; stroke-miterlimit: 10; fill: rgb(0,0,0); fill-rule: nonzero; opacity: 1;"
   transform=" matrix(1 0 0 1 0 0) "
   stroke-linecap="round"
   id="path22" />
	<path
   d="M 76.155 72.914 c -0.533 0 -1.064 -0.212 -1.458 -0.632 l -9.051 -9.646 l -4.335 3.425 c -0.866 0.685 -2.125 0.537 -2.81 -0.329 c -0.685 -0.867 -0.537 -2.125 0.329 -2.81 l 5.776 -4.563 c 0.816 -0.645 1.988 -0.557 2.698 0.201 l 10.308 10.985 c 0.756 0.805 0.716 2.071 -0.09 2.826 C 77.138 72.734 76.646 72.914 76.155 72.914 z"
   style="stroke: none; stroke-width: 1; stroke-dasharray: none; stroke-linecap: butt; stroke-linejoin: miter; stroke-miterlimit: 10; fill: rgb(0,0,0); fill-rule: nonzero; opacity: 1;"
   transform=" matrix(1 0 0 1 0 0) "
   stroke-linecap="round"
   id="path24" />
	<circle
   cx="38.224"
   cy="51.704"
   r="3.424"
   style="stroke: none; stroke-width: 1; stroke-dasharray: none; stroke-linecap: butt; stroke-linejoin: miter; stroke-miterlimit: 10; fill: rgb(0,0,0); fill-rule: nonzero; opacity: 1;"
   transform="  matrix(1 0 0 1 0 0) "
   id="circle26" />
</g>
</g>
<path
   style="fill:#000000;stroke:#000000;stroke-width:1px;stroke-linecap:butt;stroke-linejoin:miter;stroke-opacity:1"
   d="M 92.920869,173.19779 59.513553,199.5775 c 0,0 18.793692,7.59757 57.947317,7.59757 39.15362,0 90.3308,-6.47422 90.0225,-9.24888 -0.3083,-2.77467 -22.50563,-24.04711 -22.50563,-24.04711 l -14.18162,9.24889 -27.74666,-24.35541 -29.90474,21.88904 z"
   id="path42" /></svg>
